<?xml version="1.0" standalone="no"?>
<!DOCTYPE svg PUBLIC "-//W3C//DTD SVG 20010904//EN"
 "http://www.w3.org/TR/2001/REC-SVG-20010904/DTD/svg10.dtd">
<svg version="1.0" xmlns="http://www.w3.org/2000/svg"
 width="260.000000pt" height="260.000000pt" viewBox="0 0 260.000000 260.000000"
 preserveAspectRatio="xMidYMid meet">
<metadata>
Created by potrace 1.11, written by Peter Selinger 2001-2013
</metadata>
<g transform="translate(0.000000,260.000000) scale(0.100000,-0.100000)"
fill="#000000" stroke="none">
<path d="M1071 2515 c-186 -33 -407 -127 -551 -236 -529 -399 -656 -1096 -299
-1644 64 -99 238 -275 339 -342 142 -95 301 -162 470 -199 120 -26 400 -26
520 -1 257 55 475 172 656 352 146 146 244 304 303 490 43 135 56 224 55 380
-2 200 -40 354 -129 530 -63 123 -125 206 -234 315 -176 174 -386 288 -638
345 -99 23 -385 28 -492 10z m467 -30 c444 -86 816 -412 950 -835 43 -136 56
-238 49 -404 -10 -244 -83 -452 -228 -646 -400 -536 -1161 -667 -1718 -296
-284 189 -475 474 -532 796 -17 96 -17 304 0 400 84 472 470 871 941 974 176
39 374 43 538 11z"/>
<path d="M1086 2384 c-660 -119 -1071 -756 -890 -1380 53 -183 137 -326 274
-464 218 -221 506 -340 820 -340 185 0 349 37 509 115 134 65 228 134 330 241
135 141 220 291 271 479 31 113 39 337 16 458 -43 229 -146 417 -319 584 -173
167 -369 267 -601 308 -109 19 -303 18 -410 -1z m411 -895 c5 -5 148 -10 319
-11 l310 -3 -249 -175 c-137 -96 -251 -179 -253 -185 -2 -5 39 -138 91 -294
52 -157 93 -286 92 -287 -2 -2 -99 65 -217 148 -118 83 -234 163 -256 179
l-42 29 -256 -180 c-140 -99 -258 -180 -260 -180 -4 0 165 510 188 571 5 11
-58 60 -249 195 l-256 179 317 5 317 5 94 280 c51 154 96 287 99 295 3 8 50
-115 105 -274 54 -159 102 -293 106 -297z"/>
</g>
</svg>
