<svg id="Capa_2" data-name="Capa 2" xmlns="http://www.w3.org/2000/svg" viewBox="0 0 25.39 25.39"><defs><style>.cls-1{fill:#fff;}</style></defs><title>Mesa de trabajo 1</title><path class="cls-1" d="M20.46,17.08a.73.73,0,0,1-.23.64L18.1,19.85a1.23,1.23,0,0,1-.38.27,1.57,1.57,0,0,1-.46.14H17a7.35,7.35,0,0,1-1-.11,7.48,7.48,0,0,1-1.67-.51,14.14,14.14,0,0,1-2.24-1.23,16.8,16.8,0,0,1-2.67-2.25,17.64,17.64,0,0,1-1.87-2.12,15.05,15.05,0,0,1-1.19-1.87,9.94,9.94,0,0,1-.68-1.56,8.32,8.32,0,0,1-.31-1.21,3.94,3.94,0,0,1-.06-.79c0-.19,0-.3,0-.32a1.53,1.53,0,0,1,.14-.46,1.18,1.18,0,0,1,.27-.38L7.85,5.33a.71.71,0,0,1,.52-.22.6.6,0,0,1,.37.12,1.1,1.1,0,0,1,.27.3l1.72,3.27a.78.78,0,0,1,.08.56,1,1,0,0,1-.27.52l-.79.79a.26.26,0,0,0-.06.11.36.36,0,0,0,0,.12,2.88,2.88,0,0,0,.29.77,7,7,0,0,0,.6.94,10.26,10.26,0,0,0,1.14,1.28A10.49,10.49,0,0,0,13,15a7.3,7.3,0,0,0,.94.61,2.48,2.48,0,0,0,.58.23l.2,0,.11,0,.1-.06.92-.93a1,1,0,0,1,.68-.26.83.83,0,0,1,.43.1h0l3.11,1.83A.81.81,0,0,1,20.46,17.08Z"/></svg>